<svg id="Layer_1" data-name="Layer 1" xmlns="http://www.w3.org/2000/svg" xmlns:xlink="http://www.w3.org/1999/xlink" viewBox="0 0 116.07 116.07"><defs><style>.cls-1{fill:url(#linear-gradient);}.cls-2{fill:url(#linear-gradient-2);}.cls-3{fill:url(#linear-gradient-3);}.cls-4{fill:url(#linear-gradient-4);}.cls-5{fill:url(#linear-gradient-5);}.cls-6{fill:url(#linear-gradient-6);}.cls-7{fill:url(#linear-gradient-7);}</style><linearGradient id="linear-gradient" x1="154.42" y1="87.22" x2="281.47" y2="87.22" gradientTransform="translate(0.39 112.44)" gradientUnits="userSpaceOnUse"><stop offset="0" stop-color="#814aa0"/><stop offset="1" stop-color="#192a7d"/></linearGradient><linearGradient id="linear-gradient-2" x1="100.22" y1="50.12" x2="242.38" y2="50.12" xlink:href="#linear-gradient"/><linearGradient id="linear-gradient-3" x1="100.22" y1="87.22" x2="242.38" y2="87.22" xlink:href="#linear-gradient"/><linearGradient id="linear-gradient-4" x1="152.54" y1="97.41" x2="224.75" y2="97.41" gradientTransform="translate(-141.58 -29.53)" xlink:href="#linear-gradient"/><linearGradient id="linear-gradient-5" x1="148.55" y1="97.41" x2="216.93" y2="97.41" xlink:href="#linear-gradient"/><linearGradient id="linear-gradient-6" x1="148.55" y1="96.62" x2="216.93" y2="96.62" gradientTransform="translate(-141.58 -29.53)" xlink:href="#linear-gradient"/><linearGradient id="linear-gradient-7" x1="148.55" y1="81.34" x2="216.93" y2="81.34" gradientTransform="translate(-141.58 -29.53)" xlink:href="#linear-gradient"/></defs><path class="cls-1" d="M258,148A6.13,6.13,0,0,0,252,142a41,41,0,0,0-29.42,12A31.69,31.69,0,0,1,196,162.82a47,47,0,0,0-7.72-.37,47.8,47.8,0,1,0,49.31,49.31,47,47,0,0,0-.37-7.72A31.69,31.69,0,0,1,246,177.46,41,41,0,0,0,258,148Z" transform="translate(-141.97 -141.97)"/><path class="cls-2" d="M193.08,162.55c-1.59-.11-3.21-.15-4.84-.1a47.07,47.07,0,0,0-4.92.41A32.85,32.85,0,0,0,193.08,162.55Z" transform="translate(-141.97 -141.97)"/><path class="cls-3" d="M252,142a40.81,40.81,0,0,0-9.64,1.05,6.11,6.11,0,0,1,2.71,5,41,41,0,0,1-12,29.42A31.66,31.66,0,0,0,224.18,204a49.32,49.32,0,0,1,.37,7.72,48,48,0,0,1-41.31,45.83,47.46,47.46,0,0,0,6.23.44,47.94,47.94,0,0,0,48.08-46.27,47,47,0,0,0-.37-7.72A31.69,31.69,0,0,1,246,177.46,41,41,0,0,0,258,148,6.13,6.13,0,0,0,252,142Z" transform="translate(-141.97 -141.97)"/><circle class="cls-4" cx="47.81" cy="68.26" r="36.25"/><path class="cls-5" d="M189.77,174a36.63,36.63,0,0,0-6.5.59,36.24,36.24,0,0,1,26,51.79,11.83,11.83,0,1,0-21,9.66,6.07,6.07,0,0,1-3.52,9.57c-.47.11-.95.21-1.43.29a35.72,35.72,0,0,0,6.5.6,36.25,36.25,0,0,0,0-72.5Z" transform="translate(-141.97 -141.97)"/><circle class="cls-6" cx="29.48" cy="67.47" r="7.67"/><circle class="cls-7" cx="52.83" cy="52.13" r="7.67"/></svg>