<svg id="Layer_1" data-name="Layer 1" xmlns="http://www.w3.org/2000/svg" xmlns:xlink="http://www.w3.org/1999/xlink" viewBox="0 0 154.27 154.27"><defs><style>.cls-1{fill:url(#linear-gradient);}.cls-2{fill:url(#linear-gradient-2);}.cls-3{fill:url(#linear-gradient-3);}.cls-4{fill:url(#linear-gradient-4);}.cls-5{fill:url(#linear-gradient-5);}.cls-6{fill:url(#linear-gradient-6);}.cls-7{fill:url(#linear-gradient-7);}</style><linearGradient id="linear-gradient" x1="139.8" y1="87.22" x2="308.66" y2="87.22" gradientTransform="translate(0.39 112.44)" gradientUnits="userSpaceOnUse"><stop offset="0" stop-color="#fef056"/><stop offset="0.52" stop-color="#f4d902"/><stop offset="1" stop-color="#fe9738"/></linearGradient><linearGradient id="linear-gradient-2" x1="67.76" y1="37.91" x2="256.72" y2="37.91" xlink:href="#linear-gradient"/><linearGradient id="linear-gradient-3" x1="67.76" y1="87.22" x2="256.72" y2="87.22" xlink:href="#linear-gradient"/><linearGradient id="linear-gradient-4" x1="137.3" y1="100.76" x2="233.28" y2="100.76" gradientTransform="translate(-122.48 -10.43)" xlink:href="#linear-gradient"/><linearGradient id="linear-gradient-5" x1="132" y1="100.76" x2="222.89" y2="100.76" xlink:href="#linear-gradient"/><linearGradient id="linear-gradient-6" x1="132" y1="99.71" x2="222.89" y2="99.71" gradientTransform="translate(-122.48 -10.43)" xlink:href="#linear-gradient"/><linearGradient id="linear-gradient-7" x1="132" y1="79.41" x2="222.89" y2="79.41" gradientTransform="translate(-122.48 -10.43)" xlink:href="#linear-gradient"/></defs><path class="cls-1" d="M277.13,131a8.17,8.17,0,0,0-8.08-8.08A54.42,54.42,0,0,0,230,138.81a42.1,42.1,0,0,1-35.33,11.77,64.57,64.57,0,0,0-10.27-.49,63.54,63.54,0,1,0,65.55,65.55,64.63,64.63,0,0,0-.49-10.27A42.1,42.1,0,0,1,261.19,170,54.42,54.42,0,0,0,277.13,131Z" transform="translate(-122.87 -122.87)"/><path class="cls-2" d="M190.81,150.22a62.77,62.77,0,0,0-6.45-.13,64.11,64.11,0,0,0-6.53.54A43.35,43.35,0,0,0,190.81,150.22Z" transform="translate(-122.87 -122.87)"/><path class="cls-3" d="M269.05,122.87a54.71,54.71,0,0,0-12.8,1.39,8.17,8.17,0,0,1,3.6,6.69A54.46,54.46,0,0,1,243.91,170a42.14,42.14,0,0,0-11.78,35.33,63.54,63.54,0,0,1-54.4,71.17,62.64,62.64,0,0,0,8.27.59,63.72,63.72,0,0,0,63.91-61.49,64.51,64.51,0,0,0-.49-10.27A42.1,42.1,0,0,1,261.19,170,54.42,54.42,0,0,0,277.13,131a8.17,8.17,0,0,0-8.08-8.08Z" transform="translate(-122.87 -122.87)"/><circle class="cls-4" cx="63.54" cy="90.73" r="48.18"/><path class="cls-5" d="M186.4,165.42a49.23,49.23,0,0,0-8.64.78A48.18,48.18,0,0,1,212.27,235a15.72,15.72,0,1,0-27.93,12.84,8.08,8.08,0,0,1-4.67,12.73c-.63.14-1.27.27-1.91.39a49.23,49.23,0,0,0,8.64.78,48.18,48.18,0,1,0,0-96.35Z" transform="translate(-122.87 -122.87)"/><circle class="cls-6" cx="39.18" cy="89.67" r="10.19"/><circle class="cls-7" cx="70.22" cy="69.29" r="10.19"/></svg>