<svg id="Layer_1" data-name="Layer 1" xmlns="http://www.w3.org/2000/svg" xmlns:xlink="http://www.w3.org/1999/xlink" viewBox="0 0 310.94 236.52"><defs><style>.cls-1{fill:url(#linear-gradient);}.cls-2{fill:url(#linear-gradient-2);}.cls-3{fill:url(#linear-gradient-3);}.cls-4{fill:url(#linear-gradient-4);}.cls-5{fill:url(#linear-gradient-5);}.cls-6{fill:url(#linear-gradient-6);}.cls-7{fill:url(#linear-gradient-7);}.cls-8{fill:url(#linear-gradient-8);}</style><linearGradient id="linear-gradient" x1="44.89" y1="75.85" x2="322.12" y2="75.85" gradientTransform="matrix(0.98, 0.22, -0.22, 0.98, 30.42, 78.13)" gradientUnits="userSpaceOnUse"><stop offset="0" stop-color="#fd8087"/><stop offset="0.52" stop-color="#fb2b3a"/><stop offset="1" stop-color="#d90d80"/></linearGradient><linearGradient id="linear-gradient-2" x1="13.91" y1="143.58" x2="267.23" y2="143.58" gradientTransform="matrix(0.98, 0.22, -0.22, 0.98, -14.11, -3.61)" xlink:href="#linear-gradient"/><linearGradient id="linear-gradient-3" x1="13.91" y1="25.63" x2="267.23" y2="25.63" xlink:href="#linear-gradient"/><linearGradient id="linear-gradient-4" x1="13.91" y1="161.77" x2="267.23" y2="161.77" xlink:href="#linear-gradient"/><linearGradient id="linear-gradient-5" x1="64.17" y1="129.98" x2="194.58" y2="129.98" gradientTransform="matrix(0.98, 0.22, -0.22, 0.98, -14.11, -3.61)" xlink:href="#linear-gradient"/><linearGradient id="linear-gradient-6" x1="33.79" y1="129.98" x2="190.35" y2="129.98" xlink:href="#linear-gradient"/><linearGradient id="linear-gradient-7" x1="33.79" y1="128.55" x2="190.35" y2="128.55" gradientTransform="matrix(0.98, 0.22, -0.22, 0.98, -14.11, -3.61)" xlink:href="#linear-gradient"/><linearGradient id="linear-gradient-8" x1="33.79" y1="100.96" x2="190.35" y2="100.96" gradientTransform="translate(245.81 67.94) rotate(90)" xlink:href="#linear-gradient"/></defs><path class="cls-1" d="M355.2,106.64s0-.09,0-.14a4.23,4.23,0,0,0-6.3-4.88l-10,6.39a4.12,4.12,0,0,1-3.09.55,4.06,4.06,0,0,1-2.52-1.71,4.21,4.21,0,0,1,1.33-5.83l16.27-10.39a3.85,3.85,0,0,0-1.11-7l-.08,0a73.68,73.68,0,0,0-56.21,9.68l-68.61,43.83q-2.34,1.5-4.75,2.86c-5.18,2.92-9.73-4.7-4.72-7.9l15-9.58a4.21,4.21,0,0,0,1.45-5.64,4.12,4.12,0,0,0-5.74-1.35l-57.59,36.79A4.53,4.53,0,0,1,166,153h-.15a4.56,4.56,0,0,1-2.3-8.4l24.16-15.43a4.2,4.2,0,0,0,1.46-5.64,4.12,4.12,0,0,0-5.74-1.35l-31.57,20.17a39.68,39.68,0,0,1-21.64,6.25c-40.33-.31-76.76,28.4-84.27,69.62a85,85,0,0,0,157.24,57.63A40.54,40.54,0,0,1,216.31,262L244,244.34a4.21,4.21,0,0,0,1.45-5.64,4.12,4.12,0,0,0-5.74-1.35L224.55,247a5.91,5.91,0,0,1-8.84-6.7,1.21,1.21,0,0,1,0-.18,5.84,5.84,0,0,1,2.46-3.21l95.15-60.78a4.2,4.2,0,0,0,1.45-5.64,4.12,4.12,0,0,0-5.74-1.35l-66.74,42.64a4.6,4.6,0,0,1-5.89-7,101.27,101.27,0,0,1,20.68-17.51l68.61-43.83q1.93-1.23,3.76-2.57a3,3,0,0,0-3.33-4.88,4.11,4.11,0,0,1-5.61-1.15,4.22,4.22,0,0,1,1.33-5.84l31.57-20.17a4.24,4.24,0,0,0,1.74-2.23Z" transform="translate(-44.53 -81.74)"/><circle class="cls-2" cx="68.56" cy="162.07" r="65.46"/><path class="cls-3" d="M348.94,101.62l-10,6.39a4.12,4.12,0,0,1-3.09.55,4.06,4.06,0,0,1-2.52-1.71,4.21,4.21,0,0,1,1.33-5.83l16.27-10.39a3.85,3.85,0,0,0-1.11-7l-.08,0a73.77,73.77,0,0,0-23.93-1.52,3.83,3.83,0,0,1-1.73,2.63L307.81,95.13a4.23,4.23,0,0,0-1.33,5.84,4.11,4.11,0,0,0,5.61,1.15l10-6.39a4.24,4.24,0,0,1,6.3,4.9,1.21,1.21,0,0,1-.05.14,4.16,4.16,0,0,1-1.73,2.21L295,123.15a4.23,4.23,0,0,0-1.33,5.84,4.11,4.11,0,0,0,5.61,1.15l1.19.26c3.6.8,4.13,3.24,1.11,5.37-.9.63-1.8,1.24-2.73,1.83l-84.58,54.06a6.45,6.45,0,0,0-2.09,8.69c1.16,2,1.15,4.21-1.6,7.25a14.35,14.35,0,0,0-1.81,16.52l.22.42a15.33,15.33,0,0,0,7.62,6.6,4.16,4.16,0,0,1,1.91,1.67,4,4,0,0,1,.16,3.79l94.65-60.46a4.21,4.21,0,0,0,1.45-5.64,4.12,4.12,0,0,0-5.74-1.35l-66.74,42.64a4.61,4.61,0,0,1-5.88-7,101.44,101.44,0,0,1,20.67-17.49l68.61-43.83c.93-.59,1.83-1.2,2.73-1.82,3-2.13,2.49-4.58-1.11-5.37l-1.19-.26a4.07,4.07,0,0,1-3.09.55,4.11,4.11,0,0,1-2.52-1.7,4.23,4.23,0,0,1,1.33-5.84l31.57-20.17a4.21,4.21,0,0,0,1.74-2.22s0-.09,0-.14a4.23,4.23,0,0,0-6.3-4.89Z" transform="translate(-44.53 -81.74)"/><path class="cls-4" d="M239.67,237.35,224.55,247a5.91,5.91,0,0,1-8.84-6.7c0-.06,0-.12,0-.18a6.46,6.46,0,0,1,.5-1.14l-26.67,15.77c-5.46,3.49-10.05,9.64-13.3,15.23a85.48,85.48,0,0,1-78.13,42.26,84.26,84.26,0,0,0,8.93,3,85.32,85.32,0,0,0,96-39.36A40.54,40.54,0,0,1,216.31,262L244,244.34a4.21,4.21,0,0,0,1.45-5.64,4.12,4.12,0,0,0-5.74-1.35Z" transform="translate(-44.53 -81.74)"/><circle class="cls-5" cx="84.81" cy="151.66" r="65.46"/><path class="cls-6" d="M143.36,169.47A65.36,65.36,0,0,0,131.67,168a65.44,65.44,0,0,1,25.76,101.38,21.36,21.36,0,1,0-40.8,8.92,11,11,0,0,1-9.9,15.53c-.88,0-1.76,0-2.64,0a65.45,65.45,0,1,0,39.27-124.32Z" transform="translate(-44.53 -81.74)"/><circle class="cls-7" cx="52.79" cy="143.18" r="13.85"/><circle class="cls-8" cx="144.45" cy="206.9" r="13.85" transform="translate(-133.11 221.94) rotate(-77.63)"/></svg>